<svg xmlns="http://www.w3.org/2000/svg" viewBox="0 0 512 512"><path d="M510.6 255.1c-1.5-16.6-5.1-32.7-10.6-48.1c-2.7-7.5-10.7-11.2-18.2-8.5c-7.5 2.7-11.2 10.7-8.5 18.2c4.7 13.1 7.8 26.8 9.1 40.8c-13.2-2.2-26.7-3.4-40.5-3.4c-7.9 0-15.7 .3-23.4 .9c-7.9 .6-13.8 7.6-13.2 15.5s7.6 13.8 15.5 13.2c6.8-.5 13.7-.8 21.1-.8c10.2 0 20.2 .7 30 2.1c-2.7 16.2-7.2 31.8-13.4 46.6c-3.1-1.1-6.3-2.1-9.5-3c-7.7-2.1-15.6 2.3-17.7 10s2.3 15.6 10 17.7c2.2 .6 4.3 1.3 6.5 2c-8.2 15.7-18.2 30.5-29.8 44.1c-5.2-4.2-10.6-8.2-16.2-12c-6.9-4.7-16.3-3-21 3.9s-3 16.3 3.9 21c3.7 2.5 7.3 5.1 10.8 7.8c-13.7 13.2-28.7 25.1-44.8 35.5c-2.2-2.7-4.4-5.4-6.7-8c-5.4-6.2-14.8-6.8-21-1.4s-6.8 14.8-1.4 21c1.7 2 3.3 4 5 6c-16.2 8.7-33.3 15.8-51.2 21c-1.1-3.2-2.2-6.4-3.3-9.6c-2.6-7.6-10.8-11.7-18.4-9.1s-11.7 10.8-9.1 18.4c.8 2.3 1.5 4.6 2.3 6.9c-17.2 3.2-34.9 4.9-53 4.9c-7.9 0-15.7-.3-23.4-.9c-7.9-.6-14.9 5.3-15.5 13.2s5.3 14.9 13.2 15.5c8.2 .6 16.5 .9 25 .9c20.2 0 39.9-1.8 59.1-5.3c.1 0 .2 0 .3-.1c.1 0 .2 0 .3-.1c21.2-4.1 41.7-10.5 61.3-18.9c.1 0 .2-.1 .3-.1c.1 0 .2-.1 .3-.1c19.2-8.2 37.5-18.2 54.7-29.8c.1 0 .2-.1 .3-.2c.1 0 .2-.1 .3-.2c16.7-11.2 32.3-23.8 46.6-37.7c.1-.1 .2-.2 .3-.3c.1-.1 .2-.2 .3-.3c13.7-13.3 26.3-27.8 37.5-43.3c.1-.1 .2-.2 .3-.4c.1-.1 .2-.2 .3-.4c11.1-15.3 21-31.6 29.3-48.7c.1-.2 .2-.3 .2-.5c.1-.2 .2-.3 .2-.5c8.1-17.1 14.5-35.1 18.7-53.7c.1-.2 .1-.4 .2-.6c.1-.2 .1-.4 .2-.6c3.9-17.7 6.1-36.1 6.1-54.9c0-7.9-.3-15.7-.9-23.4z"/></svg>
